<?xml version="1.0" encoding="UTF-8"?>
<svg xmlns="http://www.w3.org/2000/svg" xmlns:xlink="http://www.w3.org/1999/xlink" width="350px" height="300px" viewBox="0 0 350 300" version="1.1">
<g id="surface1">
<path style=" stroke:none;fill-rule:evenodd;fill:rgb(92.54902%,14.509804%,27.45098%);fill-opacity:1;" d="M -0.0859375 -0.101562 C 116.578125 -0.101562 233.246094 -0.101562 349.914062 -0.101562 C 349.914062 99.898438 349.914062 199.898438 349.914062 299.898438 C 233.246094 299.898438 116.578125 299.898438 -0.0859375 299.898438 C -0.0859375 199.898438 -0.0859375 99.898438 -0.0859375 -0.101562 Z M -0.0859375 -0.101562 "/>
<path style=" stroke:none;fill-rule:evenodd;fill:rgb(55.294118%,0.784314%,12.156863%);fill-opacity:1;" d="M 119.960938 56.300781 C 139.222656 55.066406 156.78125 60.632812 172.636719 73 C 174.613281 74.65625 176.539062 76.390625 178.414062 78.199219 C 175.960938 78.332031 173.511719 78.332031 171.0625 78.199219 C 154.308594 64.644531 135.699219 59.3125 115.238281 62.199219 C 102.449219 64.277344 90.839844 69.613281 80.414062 78.199219 C 77.960938 78.332031 75.511719 78.332031 73.0625 78.199219 C 86.667969 65.328125 102.304688 58.027344 119.960938 56.300781 Z M 119.960938 56.300781 "/>
<path style=" stroke:none;fill-rule:evenodd;fill:rgb(55.294118%,0.784314%,12.156863%);fill-opacity:1;" d="M 72.1875 78.898438 C 72.421875 79.992188 72.535156 81.160156 72.539062 82.398438 C 72.507812 83.566406 72.480469 84.734375 72.449219 85.898438 C 55.273438 105.175781 47.339844 128.644531 48.648438 156.300781 C 50.347656 178.90625 58.28125 198.039062 72.449219 213.699219 C 72.597656 216.035156 72.566406 218.371094 72.363281 220.699219 C 53.828125 201.933594 44.378906 178.332031 44.011719 149.898438 C 44.117188 125.804688 51.148438 104.804688 65.101562 86.898438 C 67.445312 84.1875 69.804688 81.519531 72.1875 78.898438 Z M 72.1875 78.898438 "/>
<path style=" stroke:none;fill-rule:evenodd;fill:rgb(68.627451%,5.098039%,17.254902%);fill-opacity:1;" d="M 203.613281 107.300781 C 203.554688 107.300781 203.496094 107.300781 203.4375 107.300781 C 203.4375 102.234375 203.4375 97.167969 203.4375 92.101562 C 184.421875 92.101562 165.402344 92.101562 146.386719 92.101562 C 146.386719 130.566406 146.386719 169.035156 146.386719 207.5 C 151.460938 207.5 156.539062 207.5 161.613281 207.5 C 156.507812 207.699219 151.375 207.765625 146.210938 207.699219 C 146.210938 169.101562 146.210938 130.5 146.210938 91.898438 C 165.347656 91.898438 184.480469 91.898438 203.613281 91.898438 C 203.613281 97.035156 203.613281 102.167969 203.613281 107.300781 Z M 203.613281 107.300781 "/>
<path style=" stroke:none;fill-rule:evenodd;fill:rgb(54.901961%,0.784314%,11.764706%);fill-opacity:1;" d="M 203.4375 107.300781 C 189.496094 107.300781 175.554688 107.300781 161.613281 107.300781 C 161.613281 118.566406 161.613281 129.832031 161.613281 141.101562 C 173.949219 141.300781 186.316406 141.367188 198.710938 141.300781 C 198.710938 146.300781 198.710938 151.300781 198.710938 156.300781 C 186.316406 156.234375 173.949219 156.300781 161.613281 156.5 C 161.613281 173.5 161.613281 190.5 161.613281 207.5 C 156.539062 207.5 151.460938 207.5 146.386719 207.5 C 146.386719 169.035156 146.386719 130.566406 146.386719 92.101562 C 165.402344 92.101562 184.421875 92.101562 203.4375 92.101562 C 203.4375 97.167969 203.4375 102.234375 203.4375 107.300781 Z M 203.4375 107.300781 "/>
<path style=" stroke:none;fill-rule:evenodd;fill:rgb(82.352941%,10.588235%,23.137255%);fill-opacity:1;" d="M 203.4375 107.300781 C 203.496094 107.300781 203.554688 107.300781 203.613281 107.300781 C 189.699219 107.5 175.757812 107.566406 161.789062 107.5 C 161.789062 118.699219 161.789062 129.898438 161.789062 141.101562 C 161.730469 141.101562 161.671875 141.101562 161.613281 141.101562 C 161.613281 129.832031 161.613281 118.566406 161.613281 107.300781 C 175.554688 107.300781 189.496094 107.300781 203.4375 107.300781 Z M 203.4375 107.300781 "/>
<path style=" stroke:none;fill-rule:evenodd;fill:rgb(74.117647%,7.45098%,19.607843%);fill-opacity:1;" d="M 161.613281 141.101562 C 161.671875 141.101562 161.730469 141.101562 161.789062 141.101562 C 174.152344 141.101562 186.519531 141.101562 198.886719 141.101562 C 198.886719 146.234375 198.886719 151.367188 198.886719 156.5 C 186.460938 156.5 174.039062 156.5 161.613281 156.5 C 173.949219 156.300781 186.316406 156.234375 198.710938 156.300781 C 198.710938 151.300781 198.710938 146.300781 198.710938 141.300781 C 186.316406 141.367188 173.949219 141.300781 161.613281 141.101562 Z M 161.613281 141.101562 "/>
<path style=" stroke:none;fill-rule:evenodd;fill:rgb(55.294118%,0.784314%,12.156863%);fill-opacity:1;" d="M 73.0625 221.5 C 75.480469 221.269531 77.933594 221.234375 80.414062 221.398438 C 100.78125 237.578125 123.007812 242.046875 147.085938 234.800781 C 155.769531 231.871094 163.761719 227.40625 171.0625 221.398438 C 173.511719 221.265625 175.960938 221.265625 178.414062 221.398438 C 163.332031 235.726562 145.917969 243.027344 126.175781 243.300781 C 106.125 243.296875 88.417969 236.03125 73.0625 221.5 Z M 73.0625 221.5 "/>
</g>
</svg>
